<svg width="292" height="46" viewBox="0 0 292 46" xmlns="http://www.w3.org/2000/svg" xmlns:xlink="http://www.w3.org/1999/xlink">
    <defs>
        <path d="M18.033.146c5.806 5.806 9.4 13.825 9.4 22.677s-3.594 16.87-9.4 22.677l-4.402-4.402c4.679-4.68 7.575-11.142 7.575-18.275 0-7.134-2.896-13.596-7.575-18.275L18.033.146zM6.265 34.818H.34v-8.61h5.925c2.376 0 4.305 1.929 4.305 4.305 0 2.376-1.929 4.305-4.304 4.305zm0-14.294H.34v-8.61h5.925c2.376 0 4.305 1.93 4.305 4.305 0 2.376-1.929 4.305-4.304 4.305z" id="a"/>
        <linearGradient x1="0%" y1="100%" x2="99.999%" y2="0%" id="b">
            <stop stop-color="#F6216F" offset="0%"/>
            <stop stop-color="#FFD73A" offset="100%"/>
        </linearGradient>
    </defs>
    <g fill="none" fill-rule="evenodd">
        <path fill="#314140" d="M0 8.49h7.726v11.165h9.977V8.49h7.71v29.374h-7.71V26.7H7.726v11.164H0z"/>
        <g transform="translate(32.5 .354)">
            <mask id="c" fill="#fff">
                <use xlink:href="#a"/>
            </mask>
            <path d="M18.033.146c5.806 5.806 9.4 13.825 9.4 22.677s-3.594 16.87-9.4 22.677l-4.402-4.402c4.679-4.68 7.575-11.142 7.575-18.275 0-7.134-2.896-13.596-7.575-18.275L18.033.146zM6.265 34.818H.34v-8.61h5.925c2.376 0 4.305 1.929 4.305 4.305 0 2.376-1.929 4.305-4.304 4.305zm0-14.294H.34v-8.61h5.925c2.376 0 4.305 1.93 4.305 4.305 0 2.376-1.929 4.305-4.304 4.305z" fill="url(#b)" mask="url(#c)"/>
        </g>
        <path d="M153.615 15.895c-3.977 0-7.227 3.25-7.227 7.227 0 3.998 3.25 7.228 7.227 7.228 3.998 0 7.228-3.23 7.228-7.228 0-3.977-3.23-7.227-7.227-7.227zm-73.27 6.036h5.39v-5.794h3.432V30.21h-3.432v-4.846h-5.39v4.846h-3.433V16.137h3.432v5.794zm36.563-5.834v10.66h7.813v3.452h-11.246V16.097h3.433zm16.897 0v10.66h7.813v3.452h-11.245V16.097h3.432zm-26.963 0v3.452h-7.61v1.878h5.956v3.432h-5.956v1.877h7.61v3.432H95.8v-14.07h11.043zm46.773 10.82c-2.079 0-3.794-1.695-3.794-3.795 0-2.099 1.715-3.795 3.794-3.795 2.1 0 3.796 1.696 3.796 3.795 0 2.1-1.696 3.796-3.796 3.796z" fill="#314140"/>
        <path d="M284.885 18.863c1.392-.343 2.947.161 3.896 1.231.525-.504 1.07-1.01 1.575-1.514l1.15-1.11c-1.09-.868-2.382-1.454-3.734-1.716-1.313-.263-2.685-.242-3.977.121-1.05.283-2.06.767-2.766 1.575-.666.706-1.05 1.675-1.07 2.644 0 .97.343 1.938 1.009 2.645.626.707 1.494 1.13 2.382 1.433.888.303 1.817.485 2.705.788.566.181 1.151.424 1.434 1.05.02.04.04.1.06.181.142.949-.827 1.312-1.635 1.332-1.474.04-2.967-.565-4.017-1.615l-2.766 2.564c1.454 1.373 3.432 2.1 5.43 2.241 1.212.081 2.484-.04 3.615-.525 1.13-.484 2.14-1.332 2.685-2.422.565-1.11.605-2.463.04-3.553-.303-.606-.788-1.09-1.333-1.474-.383-.262-.807-.485-1.231-.666-1.05-.444-2.18-.687-3.25-1.03-.464-.161-.929-.323-1.191-.787l-.061-.142c-.202-.706.465-1.11 1.05-1.251zm-95.986-2.786v8.055c0 1.534 1.272 2.786 2.805 2.786 1.555 0 2.807-1.252 2.807-2.786v-8.055h3.452v8.055c0 3.432-2.806 6.238-6.258 6.238-3.433 0-6.239-2.806-6.239-6.238v-8.055h3.433zm58.94-.182c-3.976 0-7.227 3.25-7.227 7.227 0 3.998 3.25 7.228 7.227 7.228 3.998 0 7.228-3.23 7.228-7.228 0-3.977-3.23-7.227-7.228-7.227zm20.935.202c2.403 0 4.382 1.958 4.382 4.36 0 1.575-.849 2.968-2.1 3.735l2.423 6.017h-3.775l-2.1-5.37h-3.452v5.37h-3.433V16.097h8.055zm-38.029 0l5.451 14.112h-3.714l-.667-1.737h-5.753l-.666 1.737h-3.714l5.43-14.112h3.633zm-20.174 0c3.877 0 7.026 3.17 7.026 7.046 0 3.876-3.149 7.025-7.026 7.025h-5.975v-14.07h5.975zm-35.377 0c2.402 0 4.38 1.979 4.38 4.38 0 .97-.323 1.858-.848 2.585.607.747.99 1.696.99 2.746 0 2.402-1.978 4.36-4.381 4.36h-8.055v-14.07h7.913zm72.645 10.82c-2.079 0-3.795-1.695-3.795-3.795 0-2.099 1.716-3.795 3.795-3.795 2.1 0 3.796 1.696 3.796 3.795 0 2.1-1.696 3.796-3.796 3.796zm-72.504-.18c.504 0 .928-.425.928-.93 0-.524-.444-.948-.969-.948h-4.582v1.877h4.623zm35.236 0c1.979 0 3.594-1.616 3.594-3.594 0-1.979-1.615-3.594-3.594-3.594h-2.543v7.187h2.543zm19.933-1.697l-1.575-4.078-1.554 4.078h3.129zm-55.31-3.613c.505 0 .929-.424.929-.95 0-.504-.424-.928-.93-.928h-4.481v1.878h4.482zm93.58-.02c.505 0 .93-.424.93-.95 0-.504-.425-.928-.93-.928h-4.623v1.878h4.623zm-24.329-6.587c-.569 0-1.036-.176-1.403-.528-.365-.352-.548-.8-.548-1.342s.183-.996.548-1.361c.367-.366.834-.55 1.403-.55.542 0 .989.184 1.341.55.353.365.529.82.529 1.361 0 .542-.176.99-.529 1.342-.352.352-.799.528-1.341.528zm6.83 0c-.57 0-1.03-.176-1.382-.528-.353-.352-.529-.8-.529-1.342s.176-.996.529-1.361c.352-.366.813-.55 1.381-.55.57 0 1.03.184 1.383.55.352.365.528.82.528 1.361 0 .542-.175.99-.528 1.342-.353.352-.813.528-1.383.528z" fill="url(#b)"/>
    </g>
</svg>
