<?xml version="1.0" encoding="UTF-8"?>
<svg width="277px" height="210px" viewBox="0 0 277 210" version="1.1" xmlns="http://www.w3.org/2000/svg" xmlns:xlink="http://www.w3.org/1999/xlink">
    <!-- Generator: Sketch 51.3 (57544) - http://www.bohemiancoding.com/sketch -->
    <title>logo</title>
    <desc>Created with Sketch.</desc>
    <defs></defs>
    <g id="Style-Guide" stroke="none" stroke-width="1" fill="none" fill-rule="evenodd">
        <g id="logo" fill="#314041">
            <polygon id="Fill-1" points="0 36.925 35.7011 36.925 35.7011 88.517 81.8058 88.517 81.8058 36.925 117.439 36.925 117.439 172.6644 81.8058 172.6644 81.8058 121.0723 35.7011 121.0723 35.7011 172.6644 0 172.6644"></polygon>
            <path d="M233.519,0 C260.35,26.832 276.955,63.889 276.955,104.795 C276.955,145.7001 260.35,182.7577 233.519,209.589 L213.176,189.2461 C234.799,167.6234 248.18,137.7594 248.18,104.795 C248.18,71.83 234.799,41.966 213.176,20.343 L233.519,0 Z M179.141,160.2244 L151.759,160.2244 L151.759,120.4378 L179.141,120.4378 C190.12,120.4379 199.034,129.3518 199.034,140.3311 C199.034,151.3104 190.12,160.2243 179.141,160.2244 Z M179.141,94.17 L151.759,94.17 L151.759,54.384 L179.141,54.384 C190.12,54.384 199.034,63.298 199.034,74.277 C199.034,85.257 190.12,94.17 179.141,94.17 Z" id="Fill-2"></path>
        </g>
    </g>
</svg>